<svg width="41" height="41" fill="none" xmlns="http://www.w3.org/2000/svg"><path fill-rule="evenodd" clip-rule="evenodd" d="M29.257 27.525l-1.495-2.635-7.395 7.806 8.89-5.171zm.96-.559l.921-.536.005.005 5.769-3.163c1.615-.937 1.615-2.46 0-3.397l-2.839-1.647-5.513 5.82 1.657 2.918zm2.87-9.31l-1.829-1.061-.235-.141-.002.002-10.127-5.917 7.093 12.498 5.1-5.382zM18.983 9.422l8.204 14.457L16.96 34.678l-2.546 1.481c-.987.445-1.63.383-2.186-.126l-.005.005-.115-.117c-.346-.351-.577-.937-.577-1.64V8.391c0-.702.15-1.213.496-1.564h.007c.574-.549 1.367-.646 2.38-.075l4.57 2.671z" fill="#fff"/></svg>