<svg width="42" height="42" fill="none" xmlns="http://www.w3.org/2000/svg"><path d="M25.066 36.022h-.538c-.938-.125-1.726-.604-2.543-1.038-.978-.52-2.03-.53-3.058-.147-.548.205-1.058.516-1.59.763-1.467.68-2.877.465-4.148-.442-.822-.588-1.575-1.3-2.27-2.041-1.666-1.775-2.754-3.895-3.305-6.27a23.74 23.74 0 01-.496-3.271c-.077-.879-.01-1.77 0-2.655.009-1.128.148-2.236.5-3.312.506-1.534 1.55-2.613 2.823-3.528 1.779-1.276 3.729-1.725 5.844-1.245.923.21 1.812.59 2.698.94.533.21 1.036.25 1.56.023.155-.067.317-.117.474-.182 1.334-.565 2.698-1.002 4.165-1.033 1.019-.022 2.022.052 3.003.346 1 .3 1.735 1.003 2.48 1.684.311.284.58.617.882.943-.21.124-.368.208-.516.309-2.258 1.541-3.067 3.76-2.862 6.415a6.409 6.409 0 001.485 3.657c.679.817 1.492 1.444 2.525 1.738v.061c-.03.061-.066.121-.09.185-.898 2.387-2.227 4.49-4.105 6.206-.863.786-1.714 1.627-2.918 1.894z" fill="#fff"/><path d="M25.896 5.02c.175 5.022-3.732 7.822-7.181 7.808.1-.594.166-1.188.302-1.766.66-2.776 2.204-4.79 4.957-5.689.611-.2 1.273-.239 1.922-.352z" fill="#fff"/></svg>