<svg width="42" height="247" fill="none" xmlns="http://www.w3.org/2000/svg"><path clip-rule="evenodd" d="M21.322 41.645c11.224 0 20.323-9.099 20.323-20.323C41.645 10.1 32.546 1 21.322 1 10.1 1 1 10.099 1 21.322c0 11.224 9.099 20.323 20.322 20.323z" stroke="#fff" stroke-width=".296"/><path d="M21.517 26.942V15.534h-.035a334.061 334.061 0 01-2.162 1.511 30.4 30.4 0 01-1.24.827v-1.284c.118-.07.686-.46 1.706-1.169a88.128 88.128 0 011.714-1.177h1.177v12.7h-1.16z" fill="#fff"/><path clip-rule="evenodd" d="M21.322 141.645c11.224 0 20.323-9.099 20.323-20.323 0-11.223-9.099-20.322-20.323-20.322C10.1 101 1 110.099 1 121.322c0 11.224 9.099 20.323 20.322 20.323z" stroke="#fff" stroke-width=".296"/><path d="M17 117.81c.006-1.078.392-1.972 1.16-2.681.773-.714 1.74-1.072 2.9-1.072 1.108 0 2.042.334 2.804 1.002.762.668 1.143 1.488 1.143 2.461 0 .691-.194 1.362-.58 2.013-.381.644-1.1 1.514-2.154 2.61l-3.533 3.691v.036h6.592v1.072h-8.27v-.844l4.482-4.737c.908-.955 1.511-1.685 1.81-2.189a3.012 3.012 0 00.457-1.582c0-.691-.27-1.277-.808-1.757-.54-.481-1.199-.721-1.978-.721-.814 0-1.494.258-2.039.773-.539.51-.814 1.152-.826 1.925v.009H17v-.009z" fill="#fff"/><path clip-rule="evenodd" d="M21.322 246.645c11.224 0 20.323-9.099 20.323-20.323 0-11.223-9.099-20.322-20.323-20.322C10.1 206 1 215.099 1 226.322c0 11.224 9.099 20.323 20.322 20.323z" stroke="#fff" stroke-width=".296"/><path d="M19.355 225.904v-1.02h1.477c.826 0 1.5-.228 2.021-.685.522-.457.782-1.04.782-1.749 0-.698-.249-1.26-.747-1.688-.492-.433-1.16-.65-2.004-.65-.785 0-1.435.217-1.95.65-.516.434-.806 1.002-.87 1.705h-1.161c.076-1.019.48-1.842 1.213-2.469.738-.627 1.679-.941 2.821-.941 1.12 0 2.051.308 2.795.923.744.609 1.116 1.383 1.116 2.32 0 .791-.237 1.456-.712 1.995-.474.539-1.119.882-1.933 1.029v.035c.973.058 1.746.369 2.32.932.58.556.87 1.283.87 2.179 0 .703-.193 1.336-.58 1.899-.386.562-.914.999-1.582 1.309-.668.311-1.409.466-2.224.466-1.265 0-2.3-.325-3.102-.976-.803-.65-1.225-1.488-1.266-2.513h1.16c.047.715.364 1.301.95 1.758.591.451 1.341.676 2.25.676.92 0 1.678-.243 2.276-.729.598-.486.897-1.105.897-1.855 0-.808-.293-1.444-.88-1.907-.585-.463-1.388-.694-2.408-.694h-1.529z" fill="#fff"/><path d="M22 49v45m0 55v45" stroke="#fff" stroke-width="1.3" stroke-linecap="round" stroke-dasharray="0.5 4.59"/></svg>