<svg width="32" height="32" fill="none" xmlns="http://www.w3.org/2000/svg"><path d="M12.201 32c-4.27 0-6.406 0-8.037-.831A7.626 7.626 0 01.83 27.836C0 26.205 0 24.07 0 19.8v-7.6c0-4.27 0-6.406.831-8.037A7.626 7.626 0 014.164.83C5.795 0 7.93 0 12.2 0h7.6c4.27 0 6.406 0 8.037.831a7.626 7.626 0 013.333 3.333C32 5.795 32 7.93 32 12.2v7.6c0 4.27 0 6.406-.831 8.037a7.626 7.626 0 01-3.333 3.333C26.205 32 24.07 32 19.8 32h-7.6z" fill="#243860"/><path d="M17.822 21.54l-.018 1.787H11.77c.383-3.718 4.082-4.994 4.246-5.085l-1.257-2.205c-.219.11-5.905 2.424-5.467 8.529.054.674.656 1.24 1.33 1.24h7.308l.037 1.822 4.738-3.08-4.884-3.007z" fill="url(#paint0_linear)"/><path d="M14.122 11.664l.018-1.786h6.033c-.401 3.699-3.827 5.34-3.973 5.43l1.257 2.224c.219-.11 5.613-2.77 5.194-8.894-.055-.674-.656-1.239-1.33-1.239h-7.308l-.037-1.822-4.738 3.08 4.884 3.007z" fill="url(#paint1_linear)"/><defs><linearGradient id="paint0_linear" x1="11.79" y1="30.619" x2="21.862" y2="14.925" gradientUnits="userSpaceOnUse"><stop stop-color="#71BCFF"/><stop offset=".203" stop-color="#71BCFC"/><stop offset=".362" stop-color="#6FBBF2"/><stop offset=".507" stop-color="#6DBAE1"/><stop offset=".642" stop-color="#6BB8CA"/><stop offset=".771" stop-color="#67B5AC"/><stop offset=".894" stop-color="#63B287"/><stop offset="1" stop-color="#5EAF61"/></linearGradient><linearGradient id="paint1_linear" x1="12.329" y1="24.1" x2="19.038" y2="6.108" gradientUnits="userSpaceOnUse"><stop stop-color="#71BCFF"/><stop offset="1" stop-color="#62CF81"/></linearGradient></defs></svg>