<svg width="78" height="42" fill="none" xmlns="http://www.w3.org/2000/svg"><path d="M14.95 9.272l-.382 27.663c0 .612-.46 1.051-1.09 1.051h-3.326c-.765 0-1.453-.688-1.453-1.453l.363-27.28H2.16C1.013 9.253 0 8.239 0 7.11l.02-1.873c0-.88.668-1.51 1.548-1.51h20.99c.785 0 1.511.707 1.492 1.49l-.038 2.773c0 .745-.555 1.28-1.3 1.28H14.95z" fill="#5FAF61"/><path d="M14.95 9.272l-.382 27.663c0 .612-.46 1.051-1.09 1.051h-3.326c-.765 0-1.453-.688-1.453-1.453l.363-27.28H2.16C1.013 9.253 0 8.239 0 7.11l.02-1.873c0-.88.668-1.51 1.548-1.51h20.99c.785 0 1.511.707 1.492 1.49l-.038 2.773c0 .745-.555 1.28-1.3 1.28H14.95z" fill="url(#paint0_linear)"/><path d="M27.032 36.151l.364-30.932c.019-.86.669-1.491 1.53-1.491H46.13c.765 0 1.434.688 1.434 1.433l-.038 3.078c0 .593-.46 1.052-1.071 1.052h-12.33c-.517 0-.919.382-.919.898l-.095 7.705h10.017c.593 0 1.128.535 1.128 1.109l-.038 3.613c0 .478-.363.822-.841.822H33.035l-.095 8.106c0 .478.44.917.917.917h12.695c.783 0 1.49.708 1.49 1.492l-.038 2.982c0 .612-.477 1.07-1.108 1.07h-18.01c-.974 0-1.854-.879-1.854-1.854z" fill="#5FAF61"/><path d="M27.032 36.151l.364-30.932c.019-.86.669-1.491 1.53-1.491H46.13c.765 0 1.434.688 1.434 1.433l-.038 3.078c0 .593-.46 1.052-1.071 1.052h-12.33c-.517 0-.919.382-.919.898l-.095 7.705h10.017c.593 0 1.128.535 1.128 1.109l-.038 3.613c0 .478-.363.822-.841.822H33.035l-.095 8.106c0 .478.44.917.917.917h12.695c.783 0 1.49.708 1.49 1.492l-.038 2.982c0 .612-.477 1.07-1.108 1.07h-18.01c-.974 0-1.854-.879-1.854-1.854z" fill="url(#paint1_linear)"/><path d="M68.804 30.167l-.019 3.384H57.391c.727-7.016 7.724-9.444 8.01-9.597l-2.37-4.187c-.42.21-11.146 4.57-10.343 16.116.096 1.262 1.243 2.333 2.505 2.333h13.803l.057 3.44L78 35.827l-9.196-5.659z" fill="#5FAF61"/><path d="M68.804 30.167l-.019 3.384H57.391c.727-7.016 7.724-9.444 8.01-9.597l-2.37-4.187c-.42.21-11.146 4.57-10.343 16.116.096 1.262 1.243 2.333 2.505 2.333h13.803l.057 3.44L78 35.827l-9.196-5.659z" fill="url(#paint2_linear)"/><path d="M61.788 11.509l.02-3.384H73.2c-.726 7.016-7.188 10.113-7.474 10.266l2.39 4.168c.42-.21 10.61-5.238 9.807-16.785-.096-1.262-1.243-2.333-2.505-2.333H61.616L61.56 0l-8.93 5.83 9.157 5.679z" fill="#5FAF61"/><path d="M61.788 11.509l.02-3.384H73.2c-.726 7.016-7.188 10.113-7.474 10.266l2.39 4.168c.42-.21 10.61-5.238 9.807-16.785-.096-1.262-1.243-2.333-2.505-2.333H61.616L61.56 0l-8.93 5.83 9.157 5.679z" fill="url(#paint3_linear)"/><defs><linearGradient id="paint0_linear" x1="57.549" y1="5.232" x2="43.742" y2="-5.044" gradientUnits="userSpaceOnUse"><stop stop-color="#16D691"/><stop offset="1" stop-color="#71BCFF"/></linearGradient><linearGradient id="paint1_linear" x1="58.5" y1="-.476" x2="45.122" y2="-6.514" gradientUnits="userSpaceOnUse"><stop stop-color="#16D691"/><stop offset="1" stop-color="#71BCFF"/></linearGradient><linearGradient id="paint2_linear" x1="79.427" y1="19.975" x2="48.194" y2="4.375" gradientUnits="userSpaceOnUse"><stop stop-color="#16D691"/><stop offset="1" stop-color="#71BCFF"/></linearGradient><linearGradient id="paint3_linear" x1="81.805" y1="-9.037" x2="58.876" y2="-17.28" gradientUnits="userSpaceOnUse"><stop stop-color="#16D691"/><stop offset="1" stop-color="#71BCFF"/></linearGradient></defs></svg>