<svg width="38" height="38" fill="none" xmlns="http://www.w3.org/2000/svg"><mask id="a" maskUnits="userSpaceOnUse" x="0" y="0" width="38" height="38"><path fill-rule="evenodd" clip-rule="evenodd" d="M38 19c0 3.12-.752 6.066-2.086 8.664 1.09-2.454 1.682-5.245 1.682-8.26 0-5.614-2.053-10.672-5.548-14.216A18.946 18.946 0 0138 19zM19.201.001a18.933 18.933 0 0112.846 5.187C28.872 1.97 24.505 0 19.404 0l-.203.001zm-19.2 19.2c.08 7.69 4.729 14.286 11.361 17.201C4.66 33.577 0 27.251 0 19.404l.001-.203zM19.196 38c7.29-.074 13.596-4.253 16.718-10.335C33.132 33.93 27.104 38 19.404 38l-.208-.001zm0 0a20.646 20.646 0 01-7.834-1.597A18.936 18.936 0 0019.196 38zM.001 19.201C.109 8.647 8.647.11 19.201.001L19 0C8.507 0 0 8.507 0 19l.001.201zm19.814 11.501h-.004a11.61 11.61 0 01-5.55-1.413l-6.157 1.614 1.648-6.016a11.584 11.584 0 01-1.55-5.804c.002-6.402 5.212-11.61 11.614-11.61a11.54 11.54 0 018.215 3.405 11.538 11.538 0 013.398 8.214c-.002 6.402-5.213 11.61-11.613 11.61zm-9.653-11.618c.003-5.32 4.333-9.649 9.657-9.649a9.59 9.59 0 016.825 2.83 9.59 9.59 0 012.824 6.827c-.002 5.32-4.332 9.65-9.653 9.65h-.004a9.637 9.637 0 01-4.912-1.346l-.353-.209-3.654.959.976-3.561-.23-.366a9.626 9.626 0 01-1.476-5.135zm13.376 5.528c.558-.083 1.717-.702 1.96-1.38.241-.677.241-1.257.168-1.378-.058-.098-.195-.164-.397-.262l-.159-.077c-.29-.146-1.716-.848-1.983-.944-.266-.097-.46-.146-.653.145-.193.29-.75.944-.918 1.137-.17.194-.34.218-.629.073a4.309 4.309 0 00-.192-.087 7.46 7.46 0 01-2.142-1.353c-.862-.77-1.445-1.72-1.614-2.01-.152-.26-.033-.4.086-.542l.041-.05c.307-.38.629-.798.726-.992.096-.193.048-.363-.024-.508a62.463 62.463 0 01-.574-1.375l-.321-.779c-.208-.5-.419-.498-.588-.497h-.065a11.93 11.93 0 00-.556-.01c-.194 0-.508.072-.774.362l-.057.06c-.302.323-.959 1.023-.959 2.36 0 1.42 1.028 2.792 1.183 2.998l.002.003.051.072c.348.499 2.186 3.134 4.906 4.308.693.3 1.233.478 1.655.611.695.221 1.327.19 1.828.115z" fill="#fff"/></mask><g mask="url(#a)"><path d="M33.915 19.362c0 8.484-6.697 15.361-14.958 15.361C10.697 34.723 4 27.846 4 19.362 4 10.878 10.697 4 18.957 4c8.261 0 14.958 6.878 14.958 15.362z" fill="#fff"/></g></svg>