<svg width="41" height="41" viewBox="0 0 41 41" fill="none" xmlns="http://www.w3.org/2000/svg">
<path fill-rule="evenodd" clip-rule="evenodd" d="M29.2568 27.5248L27.7616 24.8901L20.3668 32.6958L29.2568 27.5248ZM30.2168 26.9663L31.1383 26.4304L31.1429 26.435L36.9116 23.2719C38.5268 22.3347 38.5268 20.8119 36.9116 19.8747L34.0733 18.2278L28.5602 24.0472L30.2168 26.9663ZM33.0861 17.6551L31.2583 16.5946L31.0231 16.4537L31.0209 16.456L20.8943 10.5393L27.9871 23.0373L33.0861 17.6551ZM18.9839 9.42304L27.1885 23.8803L16.9592 34.6779L14.4126 36.1592C13.4263 36.6041 12.7837 36.5424 12.2274 36.0332L12.2225 36.0382L12.1071 35.9211C11.761 35.5697 11.5303 34.9839 11.5303 34.281V8.39141C11.5303 7.68856 11.6796 7.17808 12.0257 6.82665L12.033 6.82668C12.6068 6.27817 13.4 6.18095 14.4126 6.75213L18.9839 9.42304Z" fill="white"/>
</svg>
