<svg width="42" height="42" viewBox="0 0 42 42" fill="none" xmlns="http://www.w3.org/2000/svg">
<path d="M25.0657 36.0222C24.8858 36.0222 24.7074 36.0222 24.5275 36.0222C23.5904 35.8972 22.8022 35.4184 21.9845 34.9836C21.0067 34.4636 19.9557 34.4536 18.9273 34.8373C18.3794 35.0419 17.8693 35.353 17.3369 35.6003C15.8701 36.2809 14.4595 36.0649 13.1894 35.1584C12.3675 34.5702 11.6144 33.8583 10.9189 33.1166C9.25263 31.3419 8.16517 29.222 7.61443 26.8463C7.36575 25.7749 7.21541 24.6724 7.11847 23.5755C7.0412 22.6973 7.10863 21.8064 7.11706 20.9213C7.1269 19.7931 7.26599 18.6848 7.61864 17.6092C8.12443 16.0747 9.16833 14.9962 10.4412 14.0812C12.2199 12.8053 14.17 12.3563 16.2845 12.8365C17.2076 13.0468 18.097 13.4262 18.9835 13.7757C19.516 13.986 20.0189 14.0258 20.543 13.7985C20.6975 13.7317 20.8605 13.6819 21.0165 13.6166C22.3512 13.0525 23.7154 12.6148 25.1822 12.5836C26.2009 12.5623 27.204 12.6362 28.1847 12.9303C29.185 13.2301 29.9198 13.9334 30.6658 14.614C30.9764 14.8982 31.2447 15.2307 31.5468 15.5575C31.3374 15.6811 31.1787 15.7649 31.0311 15.8658C28.7733 17.4075 27.9641 19.6254 28.1692 22.281C28.2746 23.6465 28.7776 24.8812 29.6543 25.9384C30.3329 26.7554 31.1463 27.382 32.179 27.6761C32.179 27.6959 32.179 27.7159 32.179 27.7372C32.1481 27.7982 32.113 27.858 32.0891 27.9219C31.1913 30.3089 29.8622 32.4119 27.9838 34.1283C27.1211 34.914 26.2697 35.7551 25.0657 36.0222Z" fill="white"/>
<path d="M25.8959 5.02063C26.0715 10.042 22.1643 12.8425 18.715 12.8283C18.8148 12.2344 18.8808 11.6404 19.0171 11.0622C19.6775 8.28579 21.2215 6.27242 23.9739 5.373C24.5851 5.17267 25.2468 5.1343 25.8959 5.02063Z" fill="white"/>
</svg>
