<svg width="42" height="247" viewBox="0 0 42 247" fill="none" xmlns="http://www.w3.org/2000/svg">
<path fill-rule="evenodd" clip-rule="evenodd" d="M21.3224 41.6448C32.5461 41.6448 41.6448 32.5461 41.6448 21.3224C41.6448 10.0986 32.5461 1 21.3224 1C10.0986 1 1 10.0986 1 21.3224C1 32.5461 10.0986 41.6448 21.3224 41.6448Z" stroke="white" stroke-width="0.296245"/>
<path d="M21.5173 26.9419V15.5337H21.4821C21.4353 15.563 21.198 15.73 20.7702 16.0347C20.3425 16.3335 19.8591 16.6704 19.32 17.0454C18.7868 17.4146 18.3737 17.6899 18.0808 17.8716V16.5884C18.198 16.5181 18.7663 16.1284 19.7859 15.4194C20.8054 14.7104 21.3767 14.3179 21.4997 14.2417H22.6775V26.9419H21.5173Z" fill="white"/>
<path fill-rule="evenodd" clip-rule="evenodd" d="M21.3224 141.645C32.5461 141.645 41.6448 132.546 41.6448 121.322C41.6448 110.099 32.5461 101 21.3224 101C10.0986 101 1 110.099 1 121.322C1 132.546 10.0986 141.645 21.3224 141.645Z" stroke="white" stroke-width="0.296245"/>
<path d="M16.9997 117.81C17.0056 116.732 17.3923 115.838 18.1599 115.129C18.9333 114.415 19.9001 114.057 21.0603 114.057C22.1677 114.057 23.1023 114.391 23.864 115.059C24.6257 115.727 25.0066 116.547 25.0066 117.52C25.0066 118.211 24.8132 118.882 24.4265 119.533C24.0456 120.177 23.3278 121.047 22.2732 122.143L18.74 125.834V125.87H25.3317V126.942H17.0612V126.098L21.5437 121.361C22.4519 120.406 23.0554 119.676 23.3542 119.172C23.6589 118.668 23.8112 118.141 23.8112 117.59C23.8112 116.899 23.5417 116.313 23.0026 115.833C22.4636 115.352 21.8044 115.112 21.0251 115.112C20.2107 115.112 19.531 115.37 18.986 115.885C18.447 116.395 18.1716 117.037 18.1599 117.81V117.819H16.9997V117.81Z" fill="white"/>
<path fill-rule="evenodd" clip-rule="evenodd" d="M21.3224 246.645C32.5461 246.645 41.6448 237.546 41.6448 226.322C41.6448 215.099 32.5461 206 21.3224 206C10.0986 206 1 215.099 1 226.322C1 237.546 10.0986 246.645 21.3224 246.645Z" stroke="white" stroke-width="0.296245"/>
<path d="M19.3552 225.904V224.884H20.8317C21.6579 224.884 22.3317 224.656 22.8532 224.199C23.3747 223.742 23.6355 223.159 23.6355 222.45C23.6355 221.752 23.3864 221.19 22.8884 220.762C22.3962 220.329 21.7282 220.112 20.8845 220.112C20.0993 220.112 19.4489 220.329 18.9333 220.762C18.4177 221.196 18.1276 221.764 18.0632 222.467H16.903C16.9792 221.448 17.3835 220.625 18.1159 219.998C18.8542 219.371 19.7946 219.057 20.9372 219.057C22.0564 219.057 22.988 219.365 23.7321 219.98C24.4763 220.589 24.8484 221.363 24.8484 222.3C24.8484 223.091 24.611 223.756 24.1364 224.295C23.6618 224.834 23.0173 225.177 22.2028 225.324V225.359C23.1755 225.417 23.9489 225.728 24.5232 226.291C25.1032 226.847 25.3933 227.574 25.3933 228.47C25.3933 229.173 25.1999 229.806 24.8132 230.369C24.4265 230.931 23.8991 231.368 23.2312 231.678C22.5632 231.989 21.822 232.144 21.0075 232.144C19.7419 232.144 18.7077 231.819 17.905 231.168C17.1023 230.518 16.6804 229.68 16.6394 228.655H17.7995C17.8464 229.37 18.1628 229.956 18.7487 230.413C19.3405 230.864 20.0905 231.089 20.9987 231.089C21.9187 231.089 22.6775 230.846 23.2751 230.36C23.8728 229.874 24.1716 229.255 24.1716 228.505C24.1716 227.697 23.8786 227.061 23.2927 226.598C22.7067 226.135 21.904 225.904 20.8845 225.904H19.3552Z" fill="white"/>
<path d="M22 49L22 94" stroke="white" stroke-width="1.3" stroke-linecap="round" stroke-dasharray="0.5 4.59"/>
<path d="M22 149L22 194" stroke="white" stroke-width="1.3" stroke-linecap="round" stroke-dasharray="0.5 4.59"/>
</svg>
