<svg width="24" height="24" viewBox="0 0 24 24" fill="none" xmlns="http://www.w3.org/2000/svg">
<circle cx="12" cy="12" r="12" fill="#06068C"/>
<path fill-rule="evenodd" clip-rule="evenodd" d="M3.78408 3.25415L23.6853 14.7441C23.4971 15.5484 23.2281 16.3216 22.8872 17.0546L2.18139 5.10012C2.65223 4.43131 3.18968 3.81278 3.78408 3.25415ZM20.1026 20.852L0.281128 9.40809C0.459286 8.59894 0.71911 7.82041 1.05152 7.0816L21.7327 19.0219C21.2525 19.6863 20.7059 20.2996 20.1026 20.852Z" fill="white"/>
<path fill-rule="evenodd" clip-rule="evenodd" d="M23.8033 9.82413L4.21577 21.133C3.58823 20.5976 3.01655 19.9987 2.51068 19.3462L23.109 7.45375C23.4182 8.20844 23.6527 9.00163 23.8033 9.82413ZM0.417664 15.1495L20.5161 3.54565C21.087 4.12067 21.6 4.75319 22.0458 5.43376L1.28959 17.4174C0.925981 16.6999 0.632346 15.9409 0.417664 15.1495Z" fill="white"/>
<path fill-rule="evenodd" clip-rule="evenodd" d="M15.2822 0.454402C14.2391 0.158417 13.138 0 12 0C11.0653 0 10.1555 0.106873 9.28224 0.309068V9.31901L0.300614 9.31901C0.103896 10.181 0 11.0784 0 12C0 13.1514 0.162164 14.2649 0.4649 15.319H9.28224V23.6909C10.1555 23.8931 11.0653 24 12 24C13.138 24 14.2391 23.8416 15.2822 23.5456V15.319H23.5351C23.8378 14.2649 24 13.1514 24 12C24 11.0784 23.8961 10.181 23.6994 9.31901H15.2822V0.454402Z" fill="#9E0B0F"/>
<path fill-rule="evenodd" clip-rule="evenodd" d="M2.16941 5.11621L22.8782 17.0724C22.5542 17.7663 22.1657 18.424 21.7205 19.0378L1.04279 7.09956C1.35594 6.40046 1.73404 5.73678 2.16941 5.11621Z" fill="#9E0B0F"/>
<path fill-rule="evenodd" clip-rule="evenodd" d="M23.109 7.45385L2.5108 19.3462C2.0455 18.7461 1.63587 18.1006 1.28967 17.4175L22.0459 5.43384C22.4613 6.06801 22.8182 6.74389 23.109 7.45385Z" fill="#9E0B0F"/>
<path fill-rule="evenodd" clip-rule="evenodd" d="M0.864724 7.51913L7.48221 7.51913V0.87976C8.06106 0.644355 8.66244 0.452834 9.28221 0.309326V9.31914L0.30072 9.31913C0.442131 8.6995 0.631503 8.09813 0.864724 7.51913ZM7.48221 23.1207V17.1191H1.14353C0.871317 16.5428 0.643643 15.9413 0.464949 15.3191H9.28221V23.6911C8.66244 23.5476 8.06106 23.3561 7.48221 23.1207ZM22.8566 17.1191H17.0822V22.8741C16.5057 23.144 15.9042 23.3694 15.2822 23.5459V15.3191H23.5352C23.3565 15.9413 23.1288 16.5428 22.8566 17.1191ZM17.0822 1.12639V7.51913L23.1354 7.51914C23.3687 8.09813 23.558 8.6995 23.6994 9.31914H15.2822V0.454602C15.9042 0.63109 16.5057 0.856492 17.0822 1.12639Z" fill="white"/>
</svg>
