<svg width="32" height="32" viewBox="0 0 32 32" fill="none" xmlns="http://www.w3.org/2000/svg">
<path d="M12.2014 32C7.93048 32 5.79504 32 4.16379 31.1688C2.72889 30.4377 1.56228 29.2711 0.831168 27.8362C0 26.205 0 24.0695 0 19.7986V12.2014C0 7.93048 0 5.79504 0.831168 4.16379C1.56228 2.72889 2.72889 1.56228 4.16379 0.831168C5.79504 0 7.93048 0 12.2014 0H19.7986C24.0695 0 26.205 0 27.8362 0.831168C29.2711 1.56228 30.4377 2.72889 31.1688 4.16379C32 5.79504 32 7.93048 32 12.2014V19.7986C32 24.0695 32 26.205 31.1688 27.8362C30.4377 29.2711 29.2711 30.4377 27.8362 31.1688C26.205 32 24.0695 32 19.7986 32H12.2014Z" fill="#243860"/>
<path d="M17.8217 21.5408L17.8035 23.3267H11.7713C12.154 19.609 15.8535 18.3333 16.0175 18.2422L14.76 16.0371C14.5414 16.1465 8.85544 18.4609 9.29282 24.566C9.34749 25.2403 9.94888 25.8052 10.6232 25.8052H17.931L17.9675 27.6276L22.7057 24.5478L17.8217 21.5408Z" fill="url(#paint0_linear)"/>
<path d="M14.1222 11.6635L14.1404 9.87755H20.1726C19.7716 13.577 16.3455 15.2172 16.1997 15.3083L17.4572 17.5317C17.6759 17.4223 23.0702 14.7616 22.651 8.63831C22.5964 7.96402 21.995 7.39907 21.3207 7.39907H14.0128L13.9764 5.57666L9.2381 8.65653L14.1222 11.6635Z" fill="url(#paint1_linear)"/>
<defs>
<linearGradient id="paint0_linear" x1="11.7897" y1="30.6192" x2="21.8623" y2="14.9248" gradientUnits="userSpaceOnUse">
<stop stop-color="#71BCFF"/>
<stop offset="0.2032" stop-color="#71BCFC"/>
<stop offset="0.3624" stop-color="#6FBBF2"/>
<stop offset="0.5066" stop-color="#6DBAE1"/>
<stop offset="0.6419" stop-color="#6BB8CA"/>
<stop offset="0.7711" stop-color="#67B5AC"/>
<stop offset="0.8939" stop-color="#63B287"/>
<stop offset="1" stop-color="#5EAF61"/>
</linearGradient>
<linearGradient id="paint1_linear" x1="12.3285" y1="24.1" x2="19.0376" y2="6.10837" gradientUnits="userSpaceOnUse">
<stop stop-color="#71BCFF"/>
<stop offset="1" stop-color="#62CF81"/>
</linearGradient>
</defs>
</svg>
