<svg width="24" height="24" viewBox="0 0 24 24" fill="none" xmlns="http://www.w3.org/2000/svg">
<circle cx="12" cy="12" r="12" fill="#00AFCA"/>
<path d="M12.0518 13.6514C14.0634 13.6514 15.6941 11.9989 15.6941 9.96045C15.6941 7.92201 14.0634 6.26953 12.0518 6.26953C10.0402 6.26953 8.40942 7.92201 8.40942 9.96045C8.40942 11.9989 10.0402 13.6514 12.0518 13.6514Z" fill="#FEC50C"/>
<path d="M12.0519 5.76642C12.2685 5.76368 12.3497 5.62653 12.3497 5.46195C12.3497 5.24252 12.0519 4.2002 12.0519 4.2002C12.0519 4.2002 11.7542 5.24252 11.7542 5.46195C11.7542 5.62653 11.8354 5.76642 12.0519 5.76642Z" fill="#FEC50C"/>
<path d="M16.1909 9.96017C16.1909 10.1796 16.3289 10.2619 16.4913 10.2619C16.7079 10.2619 17.7365 9.96017 17.7365 9.96017C17.7365 9.96017 16.7079 9.65845 16.4913 9.65845C16.3289 9.65845 16.1909 9.74074 16.1909 9.96017Z" fill="#FEC50C"/>
<path d="M12.0519 14.1543C11.8354 14.157 11.7542 14.2942 11.7542 14.4588C11.7542 14.6782 12.0519 15.7233 12.0519 15.7233C12.0519 15.7233 12.3497 14.6782 12.3497 14.4588C12.3497 14.2942 12.2685 14.1543 12.0519 14.1543Z" fill="#FEC50C"/>
<path d="M7.91289 9.96017C7.91018 9.74074 7.77484 9.65845 7.61242 9.65845C7.39588 9.65845 6.36456 9.96017 6.36456 9.96017C6.36456 9.96017 7.39588 10.2619 7.61242 10.2619C7.77484 10.2619 7.91289 10.1796 7.91289 9.96017Z" fill="#FEC50C"/>
<path d="M13.6352 6.08573C13.8366 6.16692 13.9633 6.07202 14.0256 5.92115C14.1084 5.71817 14.228 4.63745 14.228 4.63745C14.228 4.63745 13.5584 5.48722 13.475 5.6902C13.4133 5.84106 13.4355 6.0018 13.6352 6.08573Z" fill="#FEC50C"/>
<path d="M15.8756 11.5656C15.7949 11.7692 15.8891 11.8975 16.038 11.9606C16.2378 12.0445 17.3048 12.1658 17.3048 12.1658C17.3048 12.1658 16.4657 11.4872 16.2659 11.4032C16.1171 11.3402 15.9584 11.3627 15.8756 11.5656Z" fill="#FEC50C"/>
<path d="M10.4688 13.8352C10.268 13.754 10.1408 13.8489 10.0785 13.9998C9.99569 14.2027 9.87659 15.2835 9.87659 15.2835C9.87659 15.2835 10.5463 14.4337 10.6291 14.2307C10.6903 14.0798 10.6681 13.9191 10.4688 13.8352Z" fill="#FEC50C"/>
<path d="M8.22799 8.35528C8.30811 8.15176 8.21391 8.02339 8.06558 7.9603C7.86581 7.87636 6.79877 7.75513 6.79877 7.75513C6.79877 7.75513 7.63789 8.43373 7.83766 8.51767C7.986 8.58076 8.14462 8.55826 8.22799 8.35528Z" fill="#FEC50C"/>
<path d="M14.9775 6.99457C15.1329 7.14762 15.2861 7.10922 15.4009 6.99457C15.5541 6.83932 16.0727 5.88696 16.0727 5.88696C16.0727 5.88696 15.1329 6.41251 14.9797 6.56776C14.8649 6.68242 14.8248 6.83932 14.9775 6.99457Z" fill="#FEC50C"/>
<path d="M14.9777 12.9262C14.8266 13.0831 14.8651 13.2384 14.9777 13.3547C15.1309 13.51 16.0707 14.0355 16.0707 14.0355C16.0707 14.0355 15.5521 13.0831 15.3989 12.9279C15.2868 12.8132 15.1309 12.771 14.9777 12.9262Z" fill="#FEC50C"/>
<path d="M9.12492 12.9261C8.96954 12.773 8.81688 12.8114 8.70157 12.9261C8.5489 13.0813 8.02972 14.0337 8.02972 14.0337C8.02972 14.0337 8.96955 13.5082 9.12275 13.3529C9.23753 13.2382 9.27759 13.0813 9.12492 12.9261Z" fill="#FEC50C"/>
<path d="M9.12417 6.99475C9.27521 6.83785 9.23677 6.6826 9.12417 6.5663C8.96879 6.41105 8.03168 5.8855 8.03168 5.8855C8.03168 5.8855 8.55085 6.83785 8.70352 6.9931C8.81613 7.10776 8.97096 7.15 9.12417 6.99475Z" fill="#FEC50C"/>
<path d="M15.8755 8.35504C15.9605 8.55692 16.1169 8.58051 16.2669 8.51962C16.4666 8.43569 17.3058 7.75708 17.3058 7.75708C17.3058 7.75708 16.2387 7.87832 16.039 7.96225C15.889 8.02315 15.7926 8.15261 15.8755 8.35504Z" fill="#FEC50C"/>
<path d="M13.6351 13.8351C13.4364 13.9218 13.4131 14.0798 13.4727 14.2317C13.556 14.4347 14.2257 15.2845 14.2257 15.2845C14.2257 15.2845 14.1061 14.2037 14.0232 14.0008C13.9631 13.8488 13.8354 13.7512 13.6351 13.8351Z" fill="#FEC50C"/>
<path d="M8.22778 11.5656C8.14225 11.3638 7.98579 11.3402 7.83583 11.4011C7.63606 11.485 6.79694 12.1636 6.79694 12.1636C6.79694 12.1636 7.86398 12.0424 8.06375 11.9584C8.21371 11.8975 8.31061 11.7708 8.22778 11.5656Z" fill="#FEC50C"/>
<path d="M10.4682 6.08555C10.6674 5.99887 10.6907 5.84088 10.6306 5.68892C10.5445 5.48594 9.87268 4.63892 9.87268 4.63892C9.87268 4.63892 9.99178 5.71964 10.0746 5.92262C10.139 6.07183 10.2668 6.16948 10.4682 6.08555Z" fill="#FEC50C"/>
<path d="M12.8588 5.84592C13.0715 5.88597 13.1776 5.76748 13.2096 5.60619C13.2518 5.39114 13.1609 4.30713 13.1609 4.30713C13.1609 4.30713 12.6677 5.2732 12.6254 5.48824C12.5935 5.65063 12.6466 5.80423 12.8588 5.84592Z" fill="#FEC50C"/>
<path d="M16.1112 10.7782C16.0717 10.9944 16.1886 11.1019 16.3478 11.1337C16.56 11.1765 17.6297 11.0843 17.6297 11.0843C17.6297 11.0843 16.6764 10.5846 16.4636 10.5418C16.3045 10.5089 16.1534 10.5637 16.1112 10.7782Z" fill="#FEC50C"/>
<path d="M11.2436 14.0745C11.0309 14.0344 10.9248 14.1529 10.8928 14.3142C10.8506 14.5293 10.9416 15.6133 10.9416 15.6133C10.9416 15.6133 11.4348 14.6472 11.477 14.4322C11.5089 14.2698 11.4559 14.1162 11.2436 14.0745Z" fill="#FEC50C"/>
<path d="M7.992 9.14221C8.03206 8.92607 7.91513 8.81854 7.75542 8.78672C7.5432 8.74393 6.47345 8.8361 6.47345 8.8361C6.47345 8.8361 7.42735 9.33586 7.63957 9.37865C7.79873 9.41157 7.94977 9.35671 7.992 9.14221Z" fill="#FEC50C"/>
<path d="M14.3507 6.473C14.5321 6.5926 14.6756 6.52457 14.7654 6.38797C14.8856 6.20529 15.211 5.16846 15.211 5.16846C15.211 5.16846 14.3903 5.8701 14.2701 6.05224C14.1797 6.18938 14.1705 6.35122 14.3507 6.473Z" fill="#FEC50C"/>
<path d="M15.4921 12.2902C15.3741 12.4745 15.4417 12.6194 15.5765 12.7104C15.7568 12.8322 16.7795 13.1619 16.7795 13.1619C16.7795 13.1619 16.0876 12.3308 15.9073 12.2096C15.7736 12.1174 15.6112 12.1081 15.4921 12.2902Z" fill="#FEC50C"/>
<path d="M9.75196 13.4478C9.5706 13.3282 9.42714 13.3962 9.33781 13.5328C9.21709 13.7155 8.89172 14.7523 8.89172 14.7523C8.89172 14.7523 9.71244 14.0507 9.83263 13.8685C9.92304 13.7314 9.93224 13.5695 9.75196 13.4478Z" fill="#FEC50C"/>
<path d="M8.60989 7.6305C8.72791 7.44617 8.66078 7.30134 8.52544 7.21028C8.3457 7.08849 7.32251 6.75879 7.32251 6.75879C7.32251 6.75879 8.01438 7.5899 8.19466 7.71114C8.32946 7.8033 8.48971 7.81263 8.60989 7.6305Z" fill="#FEC50C"/>
<path d="M15.493 7.6305C15.6159 7.81099 15.7735 7.80331 15.9083 7.71224C16.0885 7.5899 16.7804 6.75879 16.7804 6.75879C16.7804 6.75879 15.7578 7.08794 15.5775 7.21028C15.4427 7.30189 15.3728 7.44782 15.493 7.6305Z" fill="#FEC50C"/>
<path d="M14.3511 13.4475C14.1724 13.5715 14.18 13.7311 14.2704 13.8683C14.3906 14.0504 15.2113 14.7521 15.2113 14.7521C15.2113 14.7521 14.8865 13.7152 14.7658 13.5325C14.6754 13.3959 14.5292 13.3252 14.3511 13.4475Z" fill="#FEC50C"/>
<path d="M8.60989 12.2901C8.48754 12.1097 8.32946 12.1173 8.19466 12.2084C8.01438 12.3307 7.32251 13.1618 7.32251 13.1618C7.32251 13.1618 8.3457 12.8327 8.52544 12.7104C8.66078 12.6187 8.73008 12.4728 8.60989 12.2901Z" fill="#FEC50C"/>
<path d="M9.75196 6.473C9.93062 6.34902 9.92304 6.18938 9.83263 6.05224C9.71244 5.8701 8.89172 5.16846 8.89172 5.16846C8.89172 5.16846 9.21655 6.20529 9.33781 6.38797C9.42768 6.52457 9.57223 6.59534 9.75196 6.473Z" fill="#FEC50C"/>
<path d="M16.1107 9.14221C16.1557 9.35671 16.304 9.41047 16.4632 9.37865C16.6759 9.33586 17.6293 8.8361 17.6293 8.8361C17.6293 8.8361 16.5595 8.74393 16.3473 8.78672C16.1881 8.81854 16.0685 8.92661 16.1107 9.14221Z" fill="#FEC50C"/>
<path d="M12.8587 14.0745C12.6471 14.12 12.5935 14.2709 12.6254 14.4322C12.6676 14.6472 13.1608 15.6133 13.1608 15.6133C13.1608 15.6133 13.2518 14.5293 13.2095 14.3142C13.1754 14.1518 13.071 14.0306 12.8587 14.0745Z" fill="#FEC50C"/>
<path d="M7.992 10.7781C7.94761 10.5636 7.79873 10.5098 7.63957 10.5416C7.42735 10.5844 6.47345 11.0842 6.47345 11.0842C6.47345 11.0842 7.5432 11.1764 7.75542 11.1336C7.91513 11.1018 8.0326 10.9937 7.992 10.7781Z" fill="#FEC50C"/>
<path d="M11.2436 5.84592C11.4553 5.80039 11.5089 5.64953 11.477 5.48824C11.4348 5.2732 10.9416 4.30713 10.9416 4.30713C10.9416 4.30713 10.8506 5.39114 10.8928 5.60619C10.9248 5.76857 11.0314 5.88981 11.2436 5.84592Z" fill="#FEC50C"/>
<path d="M11.4017 17.9549C11.3051 17.9587 11.2094 17.9751 11.117 18.0037C10.9897 18.0207 10.8679 18.0657 10.7412 18.0866L10.6909 18.0948L10.6059 18.103C10.6116 18.1264 10.6147 18.1503 10.6151 18.1743C10.6156 18.1975 10.6125 18.2207 10.6059 18.2429C10.5978 18.2634 10.5856 18.2821 10.5702 18.2978C10.5535 18.3177 10.5333 18.3342 10.5106 18.3466C10.4885 18.3569 10.4646 18.3627 10.4402 18.3636C10.4155 18.3656 10.3907 18.3626 10.3672 18.3548C10.3421 18.3453 10.3191 18.331 10.2995 18.3126C10.2746 18.3189 10.2492 18.3235 10.2237 18.3263C10.1999 18.329 10.176 18.329 10.1522 18.3263C10.1264 18.3193 10.1011 18.3107 10.0764 18.3005C10.0518 18.2905 10.0282 18.278 10.0061 18.2632C9.91403 18.3181 9.81117 18.3729 9.75541 18.4662C9.72826 18.5103 9.71261 18.5607 9.70993 18.6127C9.70725 18.6786 9.72064 18.7441 9.74891 18.8036C9.75865 18.8211 9.76677 18.7405 9.79763 18.7295C9.85071 18.6865 9.91213 18.6553 9.97791 18.6379C10.032 18.6099 10.0261 18.6379 10.0034 18.684C9.99794 18.7065 9.96708 18.7937 10.0088 18.7498C10.1918 18.6675 10.3948 18.6511 10.5924 18.6351C10.8793 18.605 11.1673 18.5989 11.4553 18.5951C11.726 18.5989 11.9967 18.6022 12.2674 18.6127C12.3962 18.6159 12.5261 18.6456 12.6534 18.6236C12.6842 18.6154 12.7319 18.6132 12.7497 18.5951C12.6901 18.5679 12.6256 18.5534 12.5603 18.5523H12.0443C11.9009 18.5375 11.7509 18.5358 11.6156 18.481C11.5798 18.4662 11.5463 18.4316 11.5122 18.4689C11.4598 18.4879 11.4052 18.4995 11.3497 18.5035C11.2549 18.5092 11.1601 18.4927 11.0726 18.4552C11.1359 18.3663 11.2117 18.2906 11.281 18.2067C11.2269 18.1974 11.1727 18.1853 11.1153 18.1716C11.2133 18.103 11.3048 18.0257 11.4001 17.9521L11.4017 17.9549Z" fill="#FEC50C"/>
<path d="M15.6175 18.9023C15.4215 19.0214 15.2715 18.8096 15.1075 18.7465C14.9906 18.8107 14.9797 19.0263 14.8704 19.1305C14.7394 19.2814 14.5791 19.0883 14.591 18.9396C14.4346 19.0735 14.3555 19.3785 14.1038 19.3357C13.9842 19.237 13.8948 19.0285 13.8033 19.2655C13.7286 19.3813 13.5294 19.5464 13.4244 19.3714C13.3924 19.2167 13.3161 19.0351 13.2333 19.2803C13.1764 19.4542 12.9934 19.5815 12.817 19.5058C12.7201 19.4257 12.8944 19.1289 12.7715 19.1503C12.5874 19.2737 12.4802 19.5798 12.2236 19.5552C12.1235 19.4416 12.2837 19.2496 12.1744 19.1234C12.0455 19.2918 11.9037 19.5376 11.679 19.5552C11.5707 19.4668 11.6828 19.2123 11.614 19.1744C11.385 19.3138 11.143 19.5623 10.8561 19.4844C10.9682 19.0494 11.4375 18.8963 11.8306 18.8623C12.51 18.7778 13.2241 18.9331 13.8775 18.6851C13.9831 18.6198 14.2391 18.5276 14.1482 18.3768C14.0675 18.2572 14.3577 18.3038 14.3859 18.1645C14.3685 17.9884 14.519 18.0125 14.6663 17.9999C15.3262 17.9708 15.978 18.1096 16.6358 18.136C16.6856 18.4607 16.3299 18.6884 16.0435 18.5885C15.9071 18.611 15.7019 18.2698 15.742 18.5178C15.7144 18.6483 15.7339 18.82 15.6164 18.9073L15.6175 18.9023ZM10.0034 18.2374C10.1561 18.379 10.2633 18.2111 10.4062 18.1491C10.8848 17.9845 11.3027 17.6905 11.7147 17.3992C11.9643 17.1902 12.1808 16.9186 12.516 16.8506C13.1699 16.6504 13.8651 16.6745 14.519 16.4896C15.0187 15.7962 15.8676 15.5488 16.5762 15.1505C16.7387 15.1001 16.7977 14.9667 16.8469 14.8214C17.1181 14.3805 17.4875 14.0102 17.9253 13.7401C18.1322 13.6254 18.379 13.5591 18.6134 13.6117C18.5967 13.8942 18.4364 14.145 18.2431 14.3403C18.4018 14.337 18.5376 14.2355 18.6973 14.2415C18.7515 14.5317 18.4429 14.6837 18.2783 14.8642C18.3698 14.8856 18.7212 14.9124 18.5295 15.0057C18.2859 15.1769 18.0076 15.2948 17.7824 15.4939C17.9903 15.5318 18.0136 15.5762 17.8025 15.6525C17.6882 15.7309 17.4684 15.7584 17.4473 15.9114C17.6043 16.0091 17.3753 16.1062 17.2849 16.1374C17.116 16.1775 16.9384 16.2521 17.1631 16.3821C17.0781 16.5121 16.8962 16.5396 16.7473 16.5269C16.7928 16.674 16.8556 16.8391 16.6694 16.9038C16.246 17.228 15.749 17.4634 15.2185 17.5177C15.8822 17.5693 16.5665 17.4442 17.1339 17.0788C17.2091 16.9888 17.6016 16.8928 17.3818 16.8171C17.2784 16.7733 17.057 16.725 17.0418 16.6449C17.3493 16.4529 17.7364 16.5214 18.0672 16.4073C18.0758 16.2976 17.8154 16.3289 17.7185 16.3042C17.4874 16.285 17.502 16.2252 17.724 16.2027C18.006 16.127 18.3254 16.1122 18.5631 15.9284C18.3698 15.8374 18.1267 15.9175 17.9205 15.8434C18.2702 15.6881 18.6822 15.6728 18.9956 15.4402C19.1386 15.2789 18.8127 15.3305 18.7179 15.3332C18.5241 15.3672 18.4348 15.2734 18.6546 15.1917C19.0303 14.9113 19.5056 14.7292 19.7693 14.3227C19.8321 14.2316 19.9165 13.9573 19.7151 14.0555C19.4531 14.1439 19.2225 14.4428 18.9236 14.3501C19.5121 13.8882 20.0719 13.3627 20.4741 12.723C20.4947 12.5387 20.2089 12.5184 20.1347 12.6632C19.7557 13.0324 19.4147 13.468 18.9307 13.6995C19.3941 13.2458 19.7774 12.7093 20.112 12.153C20.1834 11.9884 20.3761 11.7888 20.2744 11.6044C20.1055 11.4629 19.8954 11.5924 19.8072 11.7613C19.5137 12.1503 19.2901 12.604 18.9128 12.9205C19.2436 12.2808 19.5857 11.6 19.5944 10.8622C19.5944 10.7102 19.563 10.4864 19.3594 10.5149C19.197 10.544 19.2366 10.7892 19.17 10.9127C19.0232 11.4168 18.9534 11.9627 18.654 12.4037C18.7217 11.9945 18.8403 11.5671 18.7493 11.1535C18.7071 10.9686 18.412 11.0482 18.4505 11.2314C18.098 13.0379 16.9022 14.6178 15.3376 15.5318C14.6174 15.9381 13.8296 16.2066 13.0135 16.324C12.7969 16.3722 12.5576 16.3443 12.3487 16.4194C11.8414 16.8138 11.5366 17.4733 10.8924 17.6812C10.6044 17.826 10.2292 17.8556 10.0235 18.1266C10.0073 18.1619 10.0001 18.2008 10.0024 18.2396" fill="#FEC50C"/>
<path d="M11.925 16.4049C11.8303 16.5788 11.7745 16.7791 11.6543 16.9354C11.2878 16.5975 10.7562 16.6063 10.2917 16.586C9.90785 16.5651 9.49046 16.5311 9.19378 16.2519C8.88141 15.9929 8.62642 15.6561 8.27724 15.446C7.95837 15.3582 7.63734 15.2479 7.38127 15.0269C6.83394 14.5748 6.52049 13.9039 5.98561 13.436C5.87972 13.3394 5.76739 13.2503 5.64942 13.1693C5.54115 13.1962 5.58987 13.4338 5.45723 13.3125C5.38469 13.2604 5.20387 13.2577 5.18655 13.3284C5.34896 13.5479 5.51408 13.7958 5.53627 14.0751C5.42475 14.0866 5.22661 14.0515 5.17139 14.0932C5.32028 14.3197 5.5076 14.5177 5.72467 14.678C5.62127 14.695 5.41717 14.6856 5.37765 14.7279C5.5942 14.9051 5.82103 15.0856 6.10146 15.1311C6.15885 15.2079 6.01755 15.3555 6.13665 15.4213C6.20541 15.4498 6.43278 15.4976 6.27633 15.5766C6.25186 15.5912 6.2329 15.6137 6.22248 15.6405C6.21205 15.6673 6.21074 15.6969 6.21875 15.7245C6.22677 15.7521 6.24365 15.7763 6.26673 15.7931C6.2898 15.8099 6.31776 15.8185 6.34617 15.8174C6.43278 15.8624 6.62768 15.8722 6.64338 15.9512C6.56596 16.0308 6.32668 16.1246 6.53077 16.1992C6.72212 16.3093 6.93628 16.3725 7.15606 16.3835C7.04778 16.4768 6.91244 16.5295 6.79984 16.6167C7.30169 16.9151 7.85876 17.1104 8.40879 17.3002C8.62676 17.3782 8.8498 17.4407 9.0763 17.4873C8.41637 17.4489 7.77701 17.2509 7.17825 16.9798C6.86697 16.8416 6.55351 16.7056 6.2341 16.5887C6.37432 16.5146 6.53619 16.4971 6.68127 16.4329C6.37973 16.372 6.05058 16.3517 5.78584 16.1838C5.82645 16.1109 5.9802 16.107 6.06573 16.0697C6.22544 16.0308 6.32451 15.9836 6.0993 15.9699C5.87138 15.9074 5.61206 15.9353 5.41013 15.796C5.42313 15.7126 5.63318 15.7411 5.71817 15.706C5.82645 15.6874 5.94555 15.6715 6.03163 15.5963C5.67974 15.4487 5.21957 15.5535 4.94455 15.2386C4.88067 15.1185 5.14161 15.215 5.21524 15.1953C5.40418 15.1953 5.60719 15.2562 5.78693 15.1788C5.27425 14.9512 4.7253 14.7372 4.33443 14.3159C4.29112 14.2479 4.16119 14.0624 4.26567 14.0416C4.56992 14.0822 4.79026 14.4185 5.11563 14.3664C5.15894 14.3071 4.92669 14.2106 4.86876 14.1261C4.39398 13.7135 3.93381 13.2659 3.60141 12.7255C3.57813 12.545 3.85802 12.5176 3.93219 12.657C4.29491 13.0113 4.62243 13.425 5.07448 13.6664C5.23689 13.7454 4.98245 13.5731 4.94888 13.5106C4.53149 13.0168 4.13358 12.5006 3.84178 11.9197C3.78764 11.8154 3.70319 11.6262 3.8591 11.5707C4.01556 11.4917 4.17093 11.5998 4.24997 11.7353C4.55693 12.1276 4.78268 12.5939 5.16543 12.9208C4.84061 12.2801 4.49142 11.6042 4.4833 10.868C4.49088 10.7254 4.50009 10.5092 4.69119 10.5147C4.8536 10.49 4.82653 10.6985 4.87905 10.7978C5.03713 11.3398 5.10642 11.9257 5.42367 12.4041C5.35383 12.0025 5.25043 11.5883 5.31918 11.1802C5.33488 11.0457 5.48159 11.0051 5.58121 11.0863C5.65971 11.2816 5.67595 11.5225 5.74741 11.7309C6.15506 13.1441 7.07052 14.3867 8.2637 15.2211C9.25238 15.9068 10.406 16.3081 11.6018 16.3824C11.7101 16.3918 11.8184 16.3951 11.9266 16.4016" fill="#FEC50C"/>
<path d="M10.415 18.279C10.4506 18.279 10.4794 18.2498 10.4794 18.2137C10.4794 18.1777 10.4506 18.1484 10.415 18.1484C10.3794 18.1484 10.3506 18.1777 10.3506 18.2137C10.3506 18.2498 10.3794 18.279 10.415 18.279Z" fill="#FEC50C"/>
<path d="M10.409 18.2294C10.4235 18.2294 10.4352 18.2175 10.4352 18.2028C10.4352 18.1882 10.4235 18.1763 10.409 18.1763C10.3945 18.1763 10.3828 18.1882 10.3828 18.2028C10.3828 18.2175 10.3945 18.2294 10.409 18.2294Z" fill="#FEC50C" stroke="#00AFCA" stroke-width="0.185226"/>
</svg>
