<svg width="78" height="42" viewBox="0 0 78 42" fill="none" xmlns="http://www.w3.org/2000/svg">
<path d="M14.95 9.27166L14.5677 36.9349C14.5677 37.5467 14.1088 37.9864 13.478 37.9864H10.1515C9.38677 37.9864 8.69854 37.2982 8.69854 36.5335L9.06177 9.25254H2.16029C1.01323 9.25254 0 8.23931 0 7.11137L0.019113 5.23784C0.019113 4.35842 0.688233 3.72754 1.56765 3.72754H22.5588C23.3427 3.72754 24.0691 4.43489 24.05 5.21872L24.0118 7.99078C24.0118 8.73637 23.4574 9.27166 22.7118 9.27166H14.95Z" fill="#5FAF61"/>
<path d="M14.95 9.27166L14.5677 36.9349C14.5677 37.5467 14.1088 37.9864 13.478 37.9864H10.1515C9.38677 37.9864 8.69854 37.2982 8.69854 36.5335L9.06177 9.25254H2.16029C1.01323 9.25254 0 8.23931 0 7.11137L0.019113 5.23784C0.019113 4.35842 0.688233 3.72754 1.56765 3.72754H22.5588C23.3427 3.72754 24.0691 4.43489 24.05 5.21872L24.0118 7.99078C24.0118 8.73637 23.4574 9.27166 22.7118 9.27166H14.95Z" fill="url(#paint0_linear)"/>
<path d="M27.0324 36.1511L27.3957 5.21872C27.4148 4.35842 28.0648 3.72754 28.9251 3.72754H46.131C46.8957 3.72754 47.5648 4.41578 47.5648 5.16136L47.5266 8.23931C47.5266 8.83196 47.0677 9.29078 46.456 9.29078H34.1251C33.6089 9.29078 33.2074 9.67313 33.2074 10.1893L33.1118 17.8937H43.1295C43.7221 17.8937 44.2574 18.429 44.2574 19.0026L44.2192 22.6158C44.2192 23.0937 43.856 23.4379 43.378 23.4379H33.0354L32.9398 31.5437C32.9398 32.0217 33.3795 32.4614 33.8574 32.4614H46.5516C47.3354 32.4614 48.0427 33.1688 48.0427 33.9526L48.0045 36.9349C48.0045 37.5467 47.5266 38.0055 46.8957 38.0055H28.8868C27.9118 38.0055 27.0324 37.1261 27.0324 36.1511Z" fill="#5FAF61"/>
<path d="M27.0324 36.1511L27.3957 5.21872C27.4148 4.35842 28.0648 3.72754 28.9251 3.72754H46.131C46.8957 3.72754 47.5648 4.41578 47.5648 5.16136L47.5266 8.23931C47.5266 8.83196 47.0677 9.29078 46.456 9.29078H34.1251C33.6089 9.29078 33.2074 9.67313 33.2074 10.1893L33.1118 17.8937H43.1295C43.7221 17.8937 44.2574 18.429 44.2574 19.0026L44.2192 22.6158C44.2192 23.0937 43.856 23.4379 43.378 23.4379H33.0354L32.9398 31.5437C32.9398 32.0217 33.3795 32.4614 33.8574 32.4614H46.5516C47.3354 32.4614 48.0427 33.1688 48.0427 33.9526L48.0045 36.9349C48.0045 37.5467 47.5266 38.0055 46.8957 38.0055H28.8868C27.9118 38.0055 27.0324 37.1261 27.0324 36.1511Z" fill="url(#paint1_linear)"/>
<path d="M68.8044 30.1671L68.7853 33.5509H57.3912C58.1176 26.5347 65.1147 24.1068 65.4015 23.9539L63.0309 19.7671C62.6103 19.9774 51.8853 24.3362 52.6882 35.8833C52.7838 37.1451 53.9309 38.2156 55.1926 38.2156H68.9956L69.0529 41.6568L78 35.8259L68.8044 30.1671Z" fill="#5FAF61"/>
<path d="M68.8044 30.1671L68.7853 33.5509H57.3912C58.1176 26.5347 65.1147 24.1068 65.4015 23.9539L63.0309 19.7671C62.6103 19.9774 51.8853 24.3362 52.6882 35.8833C52.7838 37.1451 53.9309 38.2156 55.1926 38.2156H68.9956L69.0529 41.6568L78 35.8259L68.8044 30.1671Z" fill="url(#paint2_linear)"/>
<path d="M61.7883 11.5088L61.8074 8.12501H73.2015C72.475 15.1412 66.0133 18.2383 65.7265 18.3912L68.1162 22.5589C68.5368 22.3486 78.7265 17.3206 77.9236 5.77354C77.828 4.51177 76.6809 3.44118 75.4192 3.44118H61.6162L61.5588 0L52.6309 5.83089L61.7883 11.5088Z" fill="#5FAF61"/>
<path d="M61.7883 11.5088L61.8074 8.12501H73.2015C72.475 15.1412 66.0133 18.2383 65.7265 18.3912L68.1162 22.5589C68.5368 22.3486 78.7265 17.3206 77.9236 5.77354C77.828 4.51177 76.6809 3.44118 75.4192 3.44118H61.6162L61.5588 0L52.6309 5.83089L61.7883 11.5088Z" fill="url(#paint3_linear)"/>
<defs>
<linearGradient id="paint0_linear" x1="57.5488" y1="5.23169" x2="43.7421" y2="-5.04396" gradientUnits="userSpaceOnUse">
<stop stop-color="#16D691"/>
<stop offset="1" stop-color="#71BCFF"/>
</linearGradient>
<linearGradient id="paint1_linear" x1="58.5" y1="-0.475629" x2="45.1222" y2="-6.51447" gradientUnits="userSpaceOnUse">
<stop stop-color="#16D691"/>
<stop offset="1" stop-color="#71BCFF"/>
</linearGradient>
<linearGradient id="paint2_linear" x1="79.4269" y1="19.9754" x2="48.1943" y2="4.37506" gradientUnits="userSpaceOnUse">
<stop stop-color="#16D691"/>
<stop offset="1" stop-color="#71BCFF"/>
</linearGradient>
<linearGradient id="paint3_linear" x1="81.8049" y1="-9.03657" x2="58.8762" y2="-17.28" gradientUnits="userSpaceOnUse">
<stop stop-color="#16D691"/>
<stop offset="1" stop-color="#71BCFF"/>
</linearGradient>
</defs>
</svg>
