<svg width="24" height="24" viewBox="0 0 24 24" fill="none" xmlns="http://www.w3.org/2000/svg">
<path fill-rule="evenodd" clip-rule="evenodd" d="M23.2444 16.2002C21.5419 20.7561 17.1498 24.0001 12 24.0001C6.85019 24.0001 2.45807 20.7561 0.755554 16.2002H23.2444Z" fill="#D52B1E"/>
<path fill-rule="evenodd" clip-rule="evenodd" d="M23.2445 16.2C23.7329 14.8928 24 13.4776 24 12C24 10.5224 23.733 9.10724 23.2445 7.80005H0.755511C0.267048 9.10724 0 10.5224 0 12C0 13.4776 0.267061 14.8928 0.755547 16.2H23.2445Z" fill="#0039A6"/>
<path fill-rule="evenodd" clip-rule="evenodd" d="M23.2445 7.8H0.755554C2.45804 3.244 6.85019 0 12 0C17.1499 0 21.542 3.244 23.2445 7.8Z" fill="#DEDEDE"/>
</svg>
