<svg width="24" height="24" viewBox="0 0 24 24" fill="none" xmlns="http://www.w3.org/2000/svg">
<path fill-rule="evenodd" clip-rule="evenodd" d="M23.2444 16.2002C21.5418 20.7561 17.1497 24 12 24C6.85019 24 2.45809 20.7561 0.755554 16.2002H23.2444Z" fill="#1DB63A"/>
<path fill-rule="evenodd" clip-rule="evenodd" d="M23.2445 16.2C23.7329 14.8928 24 13.4776 24 12C24 10.5224 23.733 9.10724 23.2445 7.80005H0.755511C0.267048 9.10724 0 10.5224 0 12C0 13.4776 0.267061 14.8928 0.755547 16.2H23.2445Z" fill="white"/>
<path fill-rule="evenodd" clip-rule="evenodd" d="M23.2445 7.8H0.755554C2.45804 3.244 6.85019 0 12 0C17.1499 0 21.542 3.244 23.2445 7.8Z" fill="#0099B5"/>
<path d="M1.60822 17.9985H22.3948L22.0286 18.5985H1.9748L1.60822 17.9985Z" fill="#CD0E24"/>
<path d="M0.766113 16.2002H23.2409C23.2409 16.2002 23.0586 16.6844 22.8621 17.117C22.6655 17.5497 22.4072 17.9986 22.4072 17.9986H1.5871C1.5871 17.9986 1.34195 17.5857 1.12697 17.093C0.911985 16.6002 0.766113 16.2002 0.766113 16.2002Z" fill="white"/>
<path d="M0.236731 9.60013L23.77 9.6001L23.8654 10.2001H0.133606L0.236731 9.60013Z" fill="#CD0E24"/>
<path d="M0.755849 7.80005L23.2548 7.80005C23.2548 7.80005 23.3997 8.17247 23.5447 8.71113C23.6897 9.24979 23.7622 9.60005 23.7622 9.60005H0.243042C0.243042 9.60005 0.32449 9.12886 0.464254 8.67297C0.604018 8.21708 0.755849 7.80005 0.755849 7.80005Z" fill="#0099B5"/>
<path d="M9.83656 6.96631L9.99462 7.45276H10.5061L10.0923 7.7534L10.2504 8.23984L9.83656 7.9392L9.42276 8.23984L9.58082 7.7534L9.16702 7.45276H9.6785L9.83656 6.96631Z" fill="white"/>
<path d="M11.9486 6.96631L12.1067 7.45276H12.6182L12.2044 7.7534L12.3624 8.23984L11.9486 7.9392L11.5348 8.23984L11.6929 7.7534L11.2791 7.45276H11.7906L11.9486 6.96631Z" fill="white"/>
<path d="M11.9486 4.85425L12.1067 5.34069H12.6182L12.2044 5.64133L12.3624 6.12778L11.9486 5.82714L11.5348 6.12778L11.6929 5.64133L11.2791 5.34069H11.7906L11.9486 4.85425Z" fill="white"/>
<path d="M14.0606 6.96631L14.2186 7.45276H14.7301L14.3163 7.7534L14.4744 8.23984L14.0606 7.9392L13.6468 8.23984L13.8048 7.7534L13.391 7.45276H13.9025L14.0606 6.96631Z" fill="white"/>
<path d="M14.0606 4.85425L14.2186 5.34069H14.7301L14.3163 5.64133L14.4744 6.12778L14.0606 5.82714L13.6468 6.12778L13.8048 5.64133L13.391 5.34069H13.9025L14.0606 4.85425Z" fill="white"/>
<path d="M14.0606 2.74219L14.2186 3.22863H14.7301L14.3163 3.52927L14.4744 4.01572L14.0606 3.71508L13.6468 4.01572L13.8048 3.52927L13.391 3.22863H13.9025L14.0606 2.74219Z" fill="white"/>
<path d="M16.1726 6.96631L16.3306 7.45276H16.8421L16.4283 7.7534L16.5864 8.23984L16.1726 7.9392L15.7588 8.23984L15.9168 7.7534L15.503 7.45276H16.0145L16.1726 6.96631Z" fill="white"/>
<path d="M16.1726 4.85425L16.3306 5.34069H16.8421L16.4283 5.64133L16.5864 6.12778L16.1726 5.82714L15.7588 6.12778L15.9168 5.64133L15.503 5.34069H16.0145L16.1726 4.85425Z" fill="white"/>
<path d="M16.1726 2.74219L16.3306 3.22863H16.8421L16.4283 3.52927L16.5864 4.01572L16.1726 3.71508L15.7588 4.01572L15.9168 3.52927L15.503 3.22863H16.0145L16.1726 2.74219Z" fill="white"/>
<path d="M18.2844 6.96631L18.4425 7.45276H18.954L18.5402 7.7534L18.6982 8.23984L18.2844 7.9392L17.8706 8.23984L18.0287 7.7534L17.6149 7.45276H18.1264L18.2844 6.96631Z" fill="white"/>
<path d="M18.2844 4.85425L18.4425 5.34069H18.954L18.5402 5.64133L18.6982 6.12778L18.2844 5.82714L17.8706 6.12778L18.0287 5.64133L17.6149 5.34069H18.1264L18.2844 4.85425Z" fill="white"/>
<path d="M18.2844 2.74219L18.4425 3.22863H18.954L18.5402 3.52927L18.6982 4.01572L18.2844 3.71508L17.8706 4.01572L18.0287 3.52927L17.6149 3.22863H18.1264L18.2844 2.74219Z" fill="white"/>
<path fill-rule="evenodd" clip-rule="evenodd" d="M7.45511 3.01098C6.21878 3.26196 5.28824 4.35502 5.28824 5.66542C5.28824 6.97583 6.21878 8.06889 7.45511 8.31987C7.28007 8.35541 7.09889 8.37406 6.91335 8.37406C5.41741 8.37406 4.20471 7.16136 4.20471 5.66542C4.20471 4.16949 5.41741 2.95679 6.91335 2.95679C7.09889 2.95679 7.28007 2.97544 7.45511 3.01098Z" fill="white"/>
</svg>
