<svg width="38" height="38" viewBox="0 0 38 38" fill="none" xmlns="http://www.w3.org/2000/svg">
<mask id="mask0" mask-type="alpha" maskUnits="userSpaceOnUse" x="0" y="0" width="38" height="38">
<path fill-rule="evenodd" clip-rule="evenodd" d="M38 19C38 22.1208 37.2476 25.0658 35.9143 27.6636C37.0038 25.2099 37.5957 22.4193 37.5957 19.4043C37.5957 13.7899 35.5431 8.7317 32.0475 5.18825C35.7129 8.65201 38 13.5589 38 19ZM19.2011 0.00104214C24.1741 0.0526085 28.6893 2.01471 32.0475 5.18825C28.8717 1.969 24.5049 0 19.4043 0C19.3365 0 19.2687 0.000347943 19.2011 0.00104214ZM0.00104213 19.2011C0.0807866 26.8916 4.72959 33.4872 11.362 36.4024C4.65953 33.5773 0 27.2507 0 19.4043C0 19.3365 0.00034794 19.2687 0.00104213 19.2011ZM19.1962 37.999C26.4859 37.9253 32.7924 33.7463 35.9143 27.6636C33.1319 33.9303 27.1043 38 19.4043 38C19.3348 38 19.2654 37.9997 19.1962 37.999ZM19.1962 37.999C16.404 37.9724 13.753 37.4102 11.362 36.4024C13.6994 37.4297 16.2831 38 19 38C19.0655 38 19.1309 37.9997 19.1962 37.999ZM0.00104213 19.2011C0.109357 8.64724 8.64724 0.109357 19.2011 0.00104214C19.1341 0.000347949 19.0671 0 19 0C8.50659 0 0 8.50659 0 19C0 19.0671 0.000347946 19.1341 0.00104213 19.2011ZM19.8155 30.702H19.8108C17.867 30.7011 15.9569 30.2137 14.2607 29.2888L8.10416 30.9033L9.75187 24.8869C8.73541 23.1263 8.20068 21.129 8.20157 19.0827C8.20423 12.6813 13.4142 7.47349 19.8155 7.47349C22.922 7.47468 25.8382 8.68389 28.0307 10.8782C30.2235 13.0728 31.4304 15.9898 31.4292 19.0919C31.4265 25.4935 26.216 30.702 19.8155 30.702ZM10.1623 19.0842C10.1647 13.7635 14.4949 9.43506 19.8194 9.43506C22.3974 9.43595 24.8212 10.4412 26.6436 12.265C28.466 14.0889 29.4691 16.5133 29.4682 19.0919C29.4659 24.4128 25.1356 28.7416 19.8153 28.7416H19.8114C18.0793 28.741 16.3804 28.2759 14.8985 27.3965L14.5458 27.1875L10.8924 28.1456L11.8677 24.5846L11.6383 24.2195C10.6721 22.6831 10.1617 20.9075 10.1623 19.0842ZM23.5385 24.6124C24.0961 24.5289 25.2552 23.9104 25.4971 23.2329C25.739 22.5552 25.739 21.9746 25.6662 21.8535C25.6079 21.7561 25.4714 21.6901 25.2692 21.5924C25.22 21.5686 25.1669 21.5429 25.1102 21.5145C24.82 21.3694 23.3935 20.6674 23.1273 20.5708C22.8614 20.474 22.6678 20.4255 22.4744 20.7159C22.2811 21.0064 21.7247 21.6598 21.5557 21.8535C21.3863 22.0468 21.2169 22.0711 20.9271 21.926C20.8795 21.9022 20.8146 21.874 20.7345 21.8393C20.3257 21.6619 19.5202 21.3125 18.5933 20.4861C17.7308 19.7169 17.1481 18.7668 16.9791 18.4766C16.8274 18.2164 16.9462 18.0753 17.0652 17.934C17.0791 17.9175 17.093 17.9011 17.1064 17.8844C17.4134 17.5037 17.735 17.0859 17.8318 16.8923C17.9283 16.6986 17.88 16.5293 17.8075 16.3839C17.759 16.2869 17.4834 15.6163 17.2338 15.0089C17.1102 14.708 16.9929 14.4226 16.9127 14.2302C16.7049 13.7306 16.4941 13.7319 16.3249 13.7329C16.3024 13.7331 16.2807 13.7332 16.2599 13.7321C16.0908 13.7239 15.8972 13.7221 15.7038 13.7221C15.5105 13.7221 15.196 13.7946 14.9299 14.0851C14.9129 14.1036 14.8939 14.1238 14.8733 14.1458C14.5713 14.4679 13.9143 15.1684 13.9143 16.505C13.9143 17.925 14.9424 19.2969 15.0967 19.5027L15.0992 19.5061C15.1087 19.5188 15.1258 19.5432 15.1502 19.5782C15.4979 20.0767 17.3363 22.7122 20.0563 23.8864C20.7488 24.1851 21.2892 24.3637 21.7108 24.4975C22.406 24.7181 23.0384 24.687 23.5385 24.6124Z" fill="white"/>
</mask>
<g mask="url(#mask0)">
<path d="M33.9149 19.3617C33.9149 27.8457 27.2182 34.7234 18.9574 34.7234C10.6967 34.7234 4 27.8457 4 19.3617C4 10.8777 10.6967 4 18.9574 4C27.2182 4 33.9149 10.8777 33.9149 19.3617Z" fill="white"/>
</g>
</svg>
